<svg width="1440" height="1024" viewBox="0 0 1440 1024" fill="none" xmlns="http://www.w3.org/2000/svg">
<g id="Looking for signals, Error 404.">
<rect width="1440" height="1024" fill="white"/>
<g id="Plant">
<path id="Path" d="M494.273 866.468C494.273 867.379 494.251 868.283 494.207 869.18L363.748 867.737C363.74 867.314 363.733 866.891 363.733 866.468C363.71 847.87 371.644 830.15 385.533 817.781L405.174 842.181L391.694 812.916C411.496 799.127 437.286 797.378 458.768 808.366L436.488 853.693L472.861 818.129C486.513 830.489 494.293 848.052 494.273 866.468Z" fill="#E1E9F7"/>
<path id="Path_2" d="M1150.36 865.716C1150.36 867.304 1150.32 868.88 1150.24 870.443L922.828 867.927C922.816 867.19 922.803 866.453 922.803 865.716C922.763 833.296 936.593 802.407 960.803 780.845L995.041 823.369L971.541 772.355C1006.06 748.319 1051.02 745.269 1088.47 764.425L1049.63 843.437L1113.03 781.442C1136.83 802.989 1150.4 833.61 1150.36 865.716Z" fill="#E1E9F7"/>
<g id="Plant 2">
<g id="Group">
<path id="Path_3" d="M800.103 827.121C800.103 827.121 786.346 812.359 796.341 798.021C806.336 783.683 784.941 786.421 790.307 768.248C795.673 750.075 802.04 753.597 796.441 736.302C796.441 736.302 811.812 740.015 814.431 750.667C817.05 761.319 804.523 767.503 814.679 772.147C824.835 776.791 829.826 776.616 828.436 786.909C827.046 797.202 844.067 798.109 846.103 813.529C848.139 828.949 839.336 855.991 839.336 855.991C839.336 855.991 803.827 847.98 800.103 827.121Z" fill="#64A4AB"/>
<path id="Path_4" d="M804.242 749.854C804.242 749.854 792.165 766.599 801.75 778.754C811.335 790.909 814.48 795.135 815.002 810.108C815.524 825.081 835.19 825.396 835.355 839.716C835.52 854.036 842.821 862.776 842.821 862.776L844.427 861.054C844.427 861.054 836.427 841.677 836.133 833.359C835.839 825.041 823.204 823.232 820.076 817.094C816.948 810.956 817.853 793.934 813.268 789.014C808.683 784.094 792.819 778.319 804.242 749.854Z" fill="white"/>
</g>
<g id="Group_2">
<path id="Path_5" d="M914.357 815.272C914.357 815.272 933.157 794.355 919.034 773.939C904.911 753.523 934.619 757.51 926.848 731.662C919.077 705.814 910.313 710.797 917.755 686.247C917.755 686.247 896.517 691.458 893.083 706.583C889.649 721.708 907.128 730.544 893.136 737.1C879.144 743.656 872.221 743.388 874.336 758.017C876.451 772.646 852.876 773.864 850.336 795.765C847.796 817.666 860.501 856.124 860.501 856.124C860.501 856.124 909.58 844.893 914.357 815.272Z" fill="#64C2AB"/>
<path id="Path_6" d="M907.192 705.473C907.192 705.473 924.241 729.314 911.18 746.55C898.119 763.786 893.836 769.771 893.39 791.043C892.944 812.315 865.69 812.681 865.724 833.025C865.758 853.369 855.801 865.759 855.801 865.759L853.544 863.306C853.544 863.306 864.28 835.806 864.528 823.99C864.776 812.174 882.263 809.655 886.486 800.948C890.709 792.241 889.138 768.048 895.404 761.079C901.67 754.11 923.546 745.964 907.192 705.473Z" fill="white"/>
</g>
</g>
<g id="Plant 1">
<g id="Group_3">
<path id="Path_7" d="M506.586 837.164C506.586 837.164 495.056 824.791 503.433 812.771C511.81 800.751 493.881 803.052 498.376 787.817C502.871 772.582 508.21 775.538 503.517 761.041C503.517 761.041 516.4 764.153 518.596 773.082C520.792 782.011 510.296 787.193 518.804 791.082C527.312 794.971 531.504 794.828 530.334 803.455C529.164 812.082 543.434 812.842 545.142 825.766C546.85 838.69 539.47 861.356 539.47 861.356C539.47 861.356 509.708 854.647 506.586 837.164Z" fill="#64A4AB"/>
<path id="Path_8" d="M510.056 772.4C510.056 772.4 499.934 786.434 507.967 796.626C516 806.818 518.637 810.355 519.074 822.905C519.511 835.455 535.995 835.719 536.133 847.721C536.11 854.665 538.302 861.436 542.391 867.049L543.737 865.606C543.737 865.606 537.028 849.366 536.786 842.393C536.544 835.42 525.949 833.905 523.327 828.761C520.705 823.617 521.464 809.349 517.621 805.225C513.778 801.101 500.485 796.26 510.056 772.4Z" fill="white"/>
</g>
<g id="Group_4">
<path id="Path_9" d="M602.35 827.233C602.35 827.233 618.104 809.701 606.269 792.589C594.434 775.477 619.332 778.819 612.819 757.154C606.306 735.489 598.96 739.666 605.197 719.09C605.197 719.09 587.397 723.457 584.518 736.134C581.639 748.811 596.29 756.217 584.563 761.712C572.836 767.207 567.033 766.982 568.809 779.244C570.585 791.506 550.821 792.526 548.694 810.883C546.567 829.24 557.219 861.472 557.219 861.472C557.219 861.472 598.346 852.059 602.35 827.233Z" fill="#64C2AB"/>
<path id="Path_10" d="M596.344 735.2C596.344 735.2 610.634 755.183 599.686 769.63C588.738 784.077 585.15 789.092 584.776 806.922C584.402 824.752 561.558 825.057 561.588 842.109C561.618 859.161 553.271 869.545 553.271 869.545L551.378 867.489C551.378 867.489 560.378 844.442 560.585 834.537C560.792 824.632 575.449 822.521 578.985 815.223C582.521 807.925 581.208 787.651 586.46 781.807C591.712 775.963 610.051 769.141 596.344 735.2Z" fill="white"/>
</g>
</g>
<rect id="Rectangle" x="258" y="869.405" width="924.63" height="5.053" fill="#4F216C"/>
</g>
<g id="Background">
<g id="Group_5" opacity="0.64">
<g id="Clipped">
<mask id="mask0" mask-type="alpha" maskUnits="userSpaceOnUse" x="299" y="150" width="736" height="560">
<path id="Path_11" fill-rule="evenodd" clip-rule="evenodd" d="M300.126 182.357L391.487 687.379C394.054 701.566 407.311 711.237 421.604 709.349L978.004 635.863C990.503 634.212 1000.2 624.135 1001.36 611.581L1033.93 260.852C1035.29 246.266 1024.77 233.258 1010.22 231.531L329.892 150.726C321.386 149.716 312.905 152.8 307.035 159.038C301.165 165.276 298.602 173.928 300.126 182.357Z" fill="white"/>
</mask>
<g mask="url(#mask0)">
<g id="Group_6">
<path id="Path_12" d="M300.126 182.357L391.487 687.379C394.054 701.566 407.311 711.237 421.604 709.349L978.004 635.863C990.503 634.212 1000.2 624.135 1001.36 611.581L1033.93 260.852C1035.29 246.266 1024.77 233.258 1010.22 231.531L329.892 150.726C321.386 149.716 312.905 152.8 307.035 159.038C301.165 165.276 298.602 173.928 300.126 182.357Z" fill="#E1E9F7"/>
<rect id="Rectangle_2" x="411.474" y="95.722" width="81.474" height="704.841" rx="12" stroke="white" stroke-width="2"/>
<rect id="Rectangle_3" x="578.21" y="80.564" width="81.474" height="704.841" rx="12" stroke="white" stroke-width="2"/>
<rect id="Rectangle_4" x="752.526" y="84.354" width="81.474" height="704.841" rx="12" stroke="white" stroke-width="2"/>
<rect id="Rectangle_5" x="917.368" y="88.143" width="81.474" height="704.841" rx="12" stroke="white" stroke-width="2"/>
</g>
</g>
</g>
</g>
<g id="Clipped_2">
<mask id="mask1" mask-type="alpha" maskUnits="userSpaceOnUse" x="299" y="150" width="736" height="560">
<path id="Path_13" fill-rule="evenodd" clip-rule="evenodd" d="M300.126 182.357L391.487 687.379C394.054 701.566 407.311 711.237 421.604 709.349L978.004 635.863C990.503 634.212 1000.2 624.135 1001.36 611.581L1033.93 260.852C1035.29 246.266 1024.77 233.258 1010.22 231.531L329.892 150.726C321.386 149.716 312.905 152.8 307.035 159.038C301.165 165.276 298.602 173.928 300.126 182.357Z" fill="white"/>
</mask>
<g mask="url(#mask1)">
<g id="Group_7">
<g id="Group_8">
<path id="Path_14" d="M850.849 712.676C850.849 712.676 812.942 691.205 824.71 656.011C836.478 620.817 793.704 639.511 793.424 599.383C793.144 559.255 808.612 562.494 786.081 530.883C786.081 530.883 820.392 528.972 832.545 548.951C844.698 568.93 822.528 589.151 846.577 592.324C870.626 595.497 880.899 592.085 884.483 613.795C888.067 635.505 924.047 626.895 937.983 656.895C951.919 686.895 950.626 747.095 950.626 747.095C950.626 747.095 871.719 752.658 850.849 712.676Z" fill="#A1B2CB"/>
<path id="Path_15" d="M810.838 553.561C810.838 553.561 796.253 594.905 823.838 613.661C851.423 632.417 860.627 639.041 871.138 669.061C881.649 699.081 922.754 687.65 932.108 716.566C941.462 745.482 962.15 758.713 962.15 758.713L964.407 754.238C964.407 754.238 935.564 719.885 929.727 703.207C923.89 686.529 896.459 690.62 886.089 680.107C875.719 669.594 866.889 634.541 854.257 627.384C841.625 620.227 804.997 618.251 810.838 553.561Z" fill="white"/>
</g>
<g id="Group_9">
<path id="Path_16" d="M1094.45 391.711C1094.45 391.711 1057.99 402.671 1042.06 373.788C1026.13 344.905 1012.92 383.398 986.639 359.151C960.355 334.904 971.639 327.067 937.694 322.108C937.694 322.108 956.806 299.194 977.02 303.651C997.234 308.108 997.243 334.47 1013.58 321.158C1029.91 307.846 1033.78 299.258 1050.04 310.198C1066.3 321.138 1082.04 293.091 1109.84 302.516C1137.63 311.941 1176.05 349.407 1176.05 349.407C1176.05 349.407 1132.86 402.816 1094.45 391.711Z" fill="#A1B2CB"/>
<path id="Path_17" d="M967.143 320.218C967.143 320.218 985.402 354.631 1013.98 348.558C1042.56 342.485 1052.33 340.686 1078.1 352.3C1103.88 363.914 1120.82 330.895 1145.19 342.566C1169.57 354.237 1190.45 349.178 1190.45 349.178L1188.88 345.023C1188.88 345.023 1149.41 342.396 1135.09 335.944C1120.77 329.492 1107.16 349.372 1094.16 349.544C1081.16 349.716 1053.11 333.976 1040.96 337.629C1028.81 341.282 1005.79 363.3 967.143 320.218Z" fill="white"/>
</g>
<g id="Group_10">
<path id="Path_18" d="M976.29 648.732C976.29 648.732 938.89 641.567 938.147 608.592C937.404 575.617 907.87 603.622 895.796 569.961C883.722 536.3 897.351 534.577 869.56 514.469C869.56 514.469 897.108 503.005 912.96 516.314C928.812 529.623 916.619 552.993 937.26 548.755C957.901 544.517 965.31 538.694 974.655 555.92C984 573.146 1010.94 555.57 1031.21 576.791C1051.49 598.012 1068.2 649.006 1068.2 649.006C1068.2 649.006 1005.19 676.356 976.29 648.732Z" fill="#A1B2CB"/>
<path id="Path_19" d="M896.538 526.426C896.538 526.426 896.792 565.382 924.938 573.226C953.084 581.07 962.572 584 980.043 606.226C997.514 628.452 1027.82 607.026 1044.02 628.656C1060.22 650.286 1081.08 655.467 1081.08 655.467L1081.6 651.056C1081.6 651.056 1047.83 630.456 1038.13 618.107C1028.42 605.758 1007.15 617.08 995.552 611.216C983.951 605.352 966.373 578.416 953.908 576.026C941.443 573.636 910.848 582.5 896.538 526.426Z" fill="white"/>
</g>
<g id="Group_11">
<path id="Path_20" d="M324.109 672.82C324.109 672.82 339.28 631.983 375.897 638.006C412.514 644.029 387.261 604.77 426.832 598.114C466.403 591.458 465.666 607.245 493.292 579.975C493.292 579.975 500.634 613.546 482.841 628.72C465.048 643.894 441.563 625.22 442.251 649.469C442.939 673.718 447.943 683.317 427.079 690.307C406.215 697.297 420.435 731.45 393.035 749.981C365.635 768.512 305.994 776.8 305.994 776.8C305.994 776.8 287.954 699.784 324.109 672.82Z" fill="#A1B2CB"/>
<path id="Path_21" d="M474.839 608.023C474.839 608.023 431.703 600.196 417.571 630.417C403.439 660.638 398.362 670.773 370.392 685.917C342.422 701.061 360.245 739.831 333.185 753.664C306.125 767.497 296.35 790.024 296.35 790.024L301.126 791.541C301.126 791.541 330.457 757.604 345.996 749.189C361.535 740.774 353.133 714.344 361.867 702.433C370.601 690.522 403.803 676.233 408.86 662.625C413.917 649.017 410.043 612.54 474.839 608.023Z" fill="white"/>
</g>
<g id="Group_12">
<path id="Path_22" d="M486.761 695.553C486.761 695.553 487.89 657.494 520.326 651.514C552.762 645.534 520.42 620.832 551.733 603.561C583.046 586.29 586.914 599.471 602.348 568.836C602.348 568.836 618.048 594.211 607.427 611.98C596.806 629.749 571.795 621.423 579.261 641.128C586.727 660.833 593.654 667.223 578.132 679.188C562.61 691.153 584.246 714.953 566.519 738.345C548.792 761.737 501.101 786.339 501.101 786.339C501.101 786.339 464.083 728.481 486.761 695.553Z" fill="#A1B2CB"/>
<path id="Path_23" d="M594.832 597.372C594.832 597.372 556.412 603.816 553.139 632.848C549.866 661.88 548.486 671.716 529.319 692.498C510.152 713.28 536.119 739.798 517.345 759.229C498.571 778.66 496.766 800.075 496.766 800.075L501.205 799.896C501.205 799.896 516.175 763.277 526.823 751.732C537.471 740.187 522.913 720.99 526.858 708.604C530.803 696.218 554.604 674.581 554.98 661.895C555.356 649.209 541.744 620.415 594.832 597.372Z" fill="white"/>
</g>
</g>
</g>
</g>
</g>
<g id="Human">
<path id="Path_24" d="M675.655 303.265H689.319C703.741 303.265 715.432 314.956 715.432 329.378V410.634C715.432 417.261 710.059 422.634 703.432 422.634H661.542C654.915 422.634 649.542 417.261 649.542 410.634V329.378C649.542 314.956 661.233 303.265 675.655 303.265Z" fill="#4F216C"/>
<path id="Path_25" d="M717.074 836.529L716.018 860.61H728.171L733.055 839.251L717.074 836.529Z" fill="#FCBB9D"/>
<path id="Path_26" d="M761.577 547.444C761.577 547.444 772.859 649.628 769.008 691.756C765.157 733.884 732.39 841.456 732.39 841.456H716.819C716.819 841.456 723.713 713.887 720.905 687.078C717.77 657.142 687.538 547.448 687.538 547.448L761.577 547.444Z" fill="#4F216C"/>
<path id="Path_27" d="M712.912 870.1L714.979 859.328H727.205C731.459 859.328 735.463 861.982 737.999 866.482C738.842 867.982 738.032 870.1 736.619 870.1H712.912Z" fill="#5F2882"/>
<path id="Path_28" d="M794.806 473.473C771.627 473.523 749.027 461.363 730.287 447.873C719.656 440.223 710.266 432.143 702.726 425.623C695.277 419.183 692.087 409.193 696.846 400.573C699.486 395.791 704.039 392.361 709.364 391.143C714.688 389.925 720.28 391.034 724.736 394.193C733.497 400.413 743.156 408.003 752.857 415.173C768.857 427.013 784.957 437.723 797.266 439.293C836.037 444.233 886.787 422.043 888.966 429.283C892.366 440.563 826.207 473.4 794.806 473.473Z" fill="#4F216C"/>
<path id="Path_29" d="M752.857 415.173L730.287 447.873C719.656 440.223 710.266 432.143 702.726 425.623C695.277 419.183 692.087 409.193 696.846 400.573C699.486 395.791 704.039 392.361 709.364 391.143C714.688 389.925 720.28 391.034 724.736 394.193C733.497 400.413 743.156 408 752.857 415.173Z" fill="#F1884F"/>
<path id="Path_30" d="M675.161 836.274L671.895 860.777H661.171L657.575 836.274H675.161Z" fill="#FCBB9D"/>
<path id="Path_31" d="M869.4 432.729C873.083 428.134 878.338 425.065 884.15 424.116C893.686 422.703 903.201 431.565 876.788 442.134C850.375 452.703 869.4 432.729 869.4 432.729Z" fill="#FCBB9D"/>
<path id="Path_32" d="M694.597 547.444C694.597 547.444 692.151 652.178 690.478 694.444C688.834 735.976 674.618 841.444 674.618 841.444H658.196C658.196 841.444 644.569 713.2 642.258 684.367C639.858 654.367 620.558 547.444 620.558 547.444H694.597Z" fill="#5F2882"/>
<path id="Path_33" d="M620.554 547.444H761.577C756.605 500.702 753.09 454.661 741.177 416.769C735.465 398.7 718.692 386.426 699.742 386.446H671.253C650.35 386.472 632.415 401.35 628.53 421.889C620.908 461.762 621.519 503.679 620.554 547.444Z" fill="#F1884F"/>
<path id="Path_34" opacity="0.33" d="M627.781 427.2C627.781 427.2 642.518 482.779 669.465 502.989C696.412 523.199 759.991 531.621 759.991 531.621L757.886 509.3C757.886 509.3 665.254 465.09 663.149 462.984C661.044 460.878 629.219 423.415 629.219 423.415L627.781 427.2Z" fill="#1D0A2B"/>
<path id="Path_35" d="M797.587 498.583C796.366 510.303 721.897 513.893 692.906 501.833C672.306 493.263 656.857 474.893 645.156 456.283C638.622 445.593 632.628 434.583 627.196 423.293C622.817 414.483 623.726 404.033 631.446 397.923C635.727 394.531 641.251 393.124 646.633 394.056C652.015 394.987 656.744 398.169 659.636 402.803C664.787 411.063 671.207 421.193 677.757 431.163C690.346 450.333 703.466 468.893 709.127 472.413C742.319 493.043 798.366 491.063 797.587 498.583Z" fill="#4F216C"/>
<path id="Path_36" d="M778.206 494.2C783.378 491.383 789.41 490.581 795.138 491.949C804.48 494.327 809.838 506.176 781.39 505.727C752.942 505.278 778.206 494.2 778.206 494.2Z" fill="#FCBB9D"/>
<path id="Path_37" d="M657.575 870.1L659.642 859.328H671.868C676.122 859.328 680.126 861.982 682.663 866.482C683.506 867.982 682.696 870.1 681.282 870.1H657.575Z" fill="#5F2882"/>
<path id="Path_38" d="M678.991 430.722L644.886 458.2C637.536 446.51 631.937 432.807 627.196 423.3C622.817 414.49 623.726 404.04 631.446 397.93C635.727 394.538 641.251 393.131 646.633 394.063C652.015 394.994 656.744 398.176 659.636 402.81C664.787 411.063 672.441 420.752 678.991 430.722Z" fill="#F1884F"/>
<path id="Path_39" d="M643.533 547.444C643.533 547.444 664.133 688.595 664.133 841.452" stroke="white" stroke-linecap="round" stroke-linejoin="round" stroke-dasharray="7"/>
<path id="Path_40" d="M690.732 351.459V391.669C690.732 395.572 688.65 399.179 685.27 401.13C681.889 403.082 677.725 403.082 674.345 401.13C670.964 399.179 668.882 395.572 668.882 391.669V351.459H690.732Z" fill="#FCBB9D"/>
<path id="Path_41" d="M690.732 353.7V378.6C690.732 378.6 675.642 382 668.882 367.32V351.459H681.202L690.732 353.7Z" fill="#B98A80"/>
<path id="Path_42" d="M690.838 368.779H685.683C676.402 368.779 668.878 361.255 668.878 351.974V315.787H707.745L707.645 330.835V351.97C707.646 356.428 705.876 360.704 702.724 363.856C699.572 367.009 695.296 368.78 690.838 368.779Z" fill="#FCBB9D"/>
<path id="Oval" d="M668.397 357.85C671.927 357.85 674.789 354.988 674.789 351.458C674.789 347.928 671.927 345.066 668.397 345.066C664.867 345.066 662.005 347.928 662.005 351.458C662.005 354.988 664.867 357.85 668.397 357.85Z" fill="#FCBB9D"/>
<path id="Path_43" d="M707.745 315.791C707.745 315.791 692.587 336.633 681.008 340.212C669.429 343.791 665.85 342.739 665.85 342.739V310.949L707.745 315.791Z" fill="#4F216C"/>
<path id="Path_44" d="M688.046 360.828L700.835 360.681C700.835 360.681 703.204 351.081 693.941 351.526C686.519 351.879 688.046 360.828 688.046 360.828Z" fill="white"/>
<path id="Path_45" opacity="0.33" d="M719.307 391.985C719.307 391.985 743.307 408.407 754.675 434.512C766.043 460.617 766.044 467.775 766.044 467.775C760.976 465.951 756.061 463.728 751.344 461.129C750.469 457.86 749.472 448.78 746.689 437.375C744.031 422.188 736.241 404.42 719.307 391.985Z" fill="#1D0A2B"/>
<path id="Path_46" opacity="0.33" d="M705.833 547.775L720.149 679.143L693.623 571.775L694.597 547.444L705.833 547.775Z" fill="#1D0A2B"/>
<path id="Path_47" d="M895.262 409.406L881.999 458.248L858.631 455.301L867.473 411.09L895.262 409.406Z" fill="#210D30"/>
<path id="Path_48" d="M896.841 412.616L895.262 409.406L881.999 458.248L883.42 461.09L896.841 412.616Z" fill="#5E3D7A"/>
<path id="Path_49" d="M858.631 455.301L859.736 458.248L883.42 461.09L881.999 458.248L858.631 455.301Z" fill="#2C153F"/>
<path id="Path_50" d="M868.947 413.195L861.789 446.564L881.789 448.88L892.631 411.616L868.947 413.195Z" fill="white"/>
<path id="Oval_2" d="M870.631 454.143C871.765 454.143 872.684 453.224 872.684 452.09C872.684 450.956 871.765 450.037 870.631 450.037C869.497 450.037 868.578 450.956 868.578 452.09C868.578 453.224 869.497 454.143 870.631 454.143Z" fill="white"/>
<path id="Path_51" d="M882.273 424.367L871.052 434.767C870.808 434.993 870.477 435.101 870.147 435.063C869.817 435.024 869.52 434.843 869.334 434.567L868.824 433.814C868.503 433.339 868.585 432.699 869.016 432.32L880.443 422.27C880.681 422.06 880.996 421.959 881.312 421.992C881.628 422.024 881.916 422.188 882.106 422.442L882.406 422.842C882.76 423.309 882.703 423.968 882.273 424.367Z" fill="#4F216C"/>
<path id="Path_52" d="M878.889 435.707L870.132 423.162C869.942 422.89 869.88 422.548 869.963 422.226C870.046 421.904 870.265 421.635 870.563 421.488L871.38 421.088C871.896 420.836 872.519 421.008 872.833 421.488L881.216 434.188C881.391 434.453 881.447 434.779 881.371 435.087C881.295 435.396 881.094 435.658 880.816 435.812L880.374 436.056C879.863 436.337 879.221 436.187 878.889 435.707Z" fill="#4F216C"/>
</g>
<g id="Signal">
<path id="Oval_3" d="M866.841 308.564C907.652 308.564 940.736 275.48 940.736 234.669C940.736 193.858 907.652 160.774 866.841 160.774C826.03 160.774 792.946 193.858 792.946 234.669C792.946 275.48 826.03 308.564 866.841 308.564Z" fill="white"/>
<g id="Group_13">
<path id="Path_53" d="M866.572 261.9C861.992 261.917 858.291 265.64 858.302 270.22C858.313 274.8 862.032 278.505 866.612 278.5C871.192 278.494 874.902 274.78 874.902 270.2C874.889 265.61 871.162 261.897 866.572 261.9V261.9Z" fill="#F1884F"/>
<path id="Path_54" d="M886.892 250.6C875.683 239.414 857.542 239.39 846.303 250.546C844.115 252.736 844.117 256.285 846.307 258.473C848.497 260.661 852.046 260.659 854.234 258.469C861.075 251.678 872.118 251.692 878.942 258.5C881.123 260.695 884.672 260.707 886.867 258.525C889.062 256.343 889.073 252.795 886.892 250.6Z" fill="#F1884F"/>
<path id="Path_55" d="M912.995 224.58C887.343 199.034 845.871 199.014 820.195 224.535C818.01 226.727 818.015 230.275 820.207 232.46C822.398 234.646 825.947 234.641 828.132 232.449C849.414 211.291 883.792 211.308 905.053 232.487C906.465 233.906 908.528 234.464 910.463 233.95C912.398 233.436 913.912 231.929 914.435 229.997C914.958 228.064 914.409 225.999 912.997 224.58H912.995Z" fill="#F1884F"/>
<path id="Path_56" d="M899.613 237.915C881.364 219.732 851.854 219.711 833.579 237.868C831.393 240.059 831.396 243.608 833.588 245.795C835.779 247.981 839.328 247.977 841.514 245.786C855.393 231.993 877.808 232.009 891.667 245.822C893.079 247.241 895.142 247.799 897.077 247.286C899.013 246.772 900.527 245.265 901.05 243.332C901.573 241.4 901.025 239.334 899.613 237.915Z" fill="#F1884F"/>
</g>
</g>
<g id="Handphone">
<g id="Group_14">
<rect id="Rectangle_6" x="342.652" y="188.614" width="197.032" height="421.213" rx="12" fill="white" stroke="#11233D"/>
<rect id="Rectangle_7" x="356.552" y="207.936" width="169.231" height="342.458" rx="2.284" fill="#E1E9F7"/>
<rect id="Rectangle_8" x="356.552" y="207.936" width="83.856" height="342.458" rx="2.284" fill="#D5DEEC"/>
<path id="Oval_4" d="M439.662 595.073C448.439 595.073 455.554 588.017 455.554 579.313C455.554 570.609 448.439 563.553 439.662 563.553C430.885 563.553 423.77 570.609 423.77 579.313C423.77 588.017 430.885 595.073 439.662 595.073Z" fill="white" stroke="#11233D"/>
</g>
<g id="Group_15" opacity="0.3">
<path id="Path_57" d="M373.799 417.622H360.319V439.186H329.129V417.622H267.904V389.122L310.84 304.406H343.955L301.019 389.127H329.13V360.247H360.319V389.127H373.799V417.622Z" fill="#4F216C"/>
<path id="Shape" fill-rule="evenodd" clip-rule="evenodd" d="M436.366 301.717C401.517 301.717 381.494 330.212 381.494 371.8C381.494 413.386 401.513 441.881 436.366 441.881C471.219 441.881 491.239 413.383 491.239 371.8C491.239 330.217 471.215 301.717 436.366 301.717ZM436.366 331.752C452.539 331.752 460.433 345.807 460.433 371.8C460.433 397.791 452.539 411.847 436.366 411.847C420.193 411.847 412.299 397.794 412.299 371.8C412.299 345.806 420.193 331.752 436.366 331.752Z" fill="#4F216C"/>
<path id="Path_58" d="M606.753 417.622H593.276V439.186H562.085V417.622H500.859V389.122L543.794 304.406H576.911L533.975 389.122H562.085V360.242H593.276V389.122H606.753V417.622Z" fill="#4F216C"/>
</g>
<g id="Group_16">
<path id="Path_59" d="M383.272 408.78H369.795V430.344H338.604V408.78H277.378V380.285L320.313 295.569H353.429L310.494 380.285H338.604V351.4H369.795V380.281H383.272V408.78Z" fill="#4F216C"/>
<path id="Shape_2" fill-rule="evenodd" clip-rule="evenodd" d="M445.84 292.874C410.991 292.874 390.967 321.369 390.967 362.957C390.967 404.544 410.992 433.039 445.84 433.039C480.688 433.039 500.712 404.54 500.712 362.957C500.712 321.374 480.689 292.874 445.84 292.874ZM445.84 322.909C462.013 322.909 469.907 336.964 469.907 362.957C469.907 388.949 462.014 403 445.84 403C429.666 403 421.773 388.95 421.773 362.957C421.773 336.964 429.667 322.909 445.84 322.909Z" fill="#4F216C"/>
<path id="Path_60" d="M616.227 408.78H602.749V430.344H571.559V408.78H510.332V380.285L553.268 295.569H586.384L543.449 380.285H571.559V351.4H602.749V380.281H616.227V408.78Z" fill="#4F216C"/>
</g>
<path id="ER" d="M391.597 482.167V477.47H401.066V471.713H391.597V467.32H402.013V461.487H385.536V488H402.202V482.167H391.597ZM419.559 488H426.074L420.431 478.266C423.347 476.789 425.317 473.834 425.317 470.577C425.317 465.54 421.264 461.487 416.226 461.487H405.621V488H411.681V479.289H414.56L419.559 488ZM411.681 467.168H416.226C417.893 467.168 419.256 468.645 419.256 470.577C419.256 472.509 417.893 473.986 416.226 473.986H411.681V467.168ZM442.862 488H449.377L443.733 478.266C446.65 476.789 448.619 473.834 448.619 470.577C448.619 465.54 444.567 461.487 439.529 461.487H428.924V488H434.984V479.289H437.862L442.862 488ZM434.984 467.168H439.529C441.196 467.168 442.559 468.645 442.559 470.577C442.559 472.509 441.196 473.986 439.529 473.986H434.984V467.168ZM464.507 488.53C472.12 488.53 478.294 482.546 478.294 474.743C478.294 466.941 472.12 460.957 464.507 460.957C456.894 460.957 450.72 466.941 450.72 474.743C450.72 482.546 456.894 488.53 464.507 488.53ZM464.507 482.622C460.189 482.622 456.78 479.478 456.78 474.743C456.78 470.009 460.189 466.865 464.507 466.865C468.825 466.865 472.234 470.009 472.234 474.743C472.234 479.478 468.825 482.622 464.507 482.622ZM495.644 488H502.159L496.516 478.266C499.432 476.789 501.402 473.834 501.402 470.577C501.402 465.54 497.349 461.487 492.311 461.487H481.706V488H487.766V479.289H490.645L495.644 488ZM487.766 467.168H492.311C493.978 467.168 495.341 468.645 495.341 470.577C495.341 472.509 493.978 473.986 492.311 473.986H487.766V467.168Z" fill="#4F216C"/>
<g id="Group_17">
<path id="Path_61" d="M437.212 276.514C434.383 276.524 432.096 278.824 432.103 281.653C432.11 284.483 434.407 286.772 437.237 286.768C440.066 286.764 442.358 284.469 442.357 281.64C442.349 278.805 440.047 276.512 437.212 276.514V276.514Z" fill="white"/>
<path id="Path_62" d="M449.763 269.53C442.839 262.621 431.634 262.607 424.692 269.497C423.341 270.85 423.342 273.043 424.695 274.394C426.048 275.745 428.241 275.744 429.592 274.391C433.817 270.196 440.639 270.204 444.854 274.41C446.202 275.766 448.393 275.773 449.749 274.425C451.105 273.077 451.112 270.886 449.764 269.53H449.763Z" fill="white"/>
<path id="Path_63" d="M465.886 253.46C450.042 237.68 424.425 237.668 408.565 253.432C407.251 254.791 407.27 256.953 408.609 258.288C409.947 259.623 412.109 259.638 413.465 258.32C426.611 245.252 447.845 245.263 460.978 258.344C462.327 259.699 464.518 259.704 465.873 258.355C467.228 257.006 467.233 254.815 465.884 253.46H465.886Z" fill="white"/>
<path id="Path_64" d="M457.619 261.7C446.347 250.469 428.119 250.456 416.831 261.671C415.842 262.66 415.546 264.148 416.083 265.44C416.619 266.732 417.881 267.573 419.28 267.571C420.199 267.573 421.081 267.21 421.732 266.561C430.304 258.04 444.151 258.05 452.711 266.583C453.579 267.481 454.863 267.841 456.071 267.527C457.28 267.212 458.225 266.272 458.546 265.065C458.866 263.858 458.512 262.573 457.619 261.7Z" fill="white"/>
</g>
</g>
<g id="Seat">
<path id="Path_65" d="M1079.67 871.368L1074.96 872.468C1072.81 872.965 1070.65 871.638 1070.13 869.49L1037.51 735.839L1028.49 698.894L1045.58 694.929L1052.12 725.162L1082.7 866.588C1083.17 868.742 1081.82 870.87 1079.67 871.368Z" fill="#FCAA71"/>
<path id="Path_66" d="M1052.12 725.159L1037.51 735.836L1028.49 698.891L1045.58 694.926L1052.12 725.159Z" fill="#E89063"/>
<path id="Path_67" d="M1007.01 698.891L1000.6 725.159L965.377 869.487C964.851 871.633 962.699 872.96 960.545 872.465L955.836 871.365C953.688 870.867 952.338 868.737 952.805 866.582L981.075 735.833H981.082L989.925 694.923L1007.01 698.891Z" fill="#FCAA71"/>
<path id="Path_68" d="M1007.01 698.891L1000.6 725.159L981.082 735.836L989.925 694.926L1007.01 698.891Z" fill="#E89063"/>
<path id="Path_69" d="M966.885 689.405H1064.56C1075.05 689.405 1083.56 697.912 1083.56 708.405V719.5C1083.56 722.625 1081.03 725.159 1077.9 725.159H953.541C950.416 725.159 947.882 722.625 947.882 719.5V708.409C947.881 703.369 949.883 698.534 953.447 694.97C957.011 691.406 961.845 689.404 966.885 689.405Z" fill="#EDECFF"/>
<path id="Path_70" d="M1002.47 689.405H1064.56C1075.05 689.405 1083.56 697.912 1083.56 708.405V719.5C1083.56 722.625 1081.03 725.159 1077.9 725.159H989.124C985.999 725.159 983.465 722.625 983.465 719.5V708.409C983.465 697.916 991.972 689.409 1002.46 689.409L1002.47 689.405Z" fill="#DCDCF1"/>
</g>
</g>
</svg>
